<svg width="53" height="58" viewBox="0 0 53 58" fill="none" xmlns="http://www.w3.org/2000/svg">
<path fill-rule="evenodd" clip-rule="evenodd" d="M4.19775 17.2192C11.8025 21.6176 19.4072 26.0215 27.0064 30.42L43.0175 21.1506C44.8482 20.0918 47.2315 20.7325 48.2877 22.5679C49.3439 24.4033 48.7048 26.7926 46.874 27.8515C40.2497 31.6852 33.6253 35.519 27.0064 39.3527L4.19775 26.1464V17.2192ZM4.19775 39.9391V31.0119C11.8025 35.4104 19.4072 39.8143 27.0064 44.2181C32.2496 41.1827 37.4927 38.1472 42.7358 35.1117C44.5666 34.0528 46.9444 34.6936 48.0006 36.529C49.0568 38.3644 48.4177 40.7537 46.5869 41.8126C40.0601 45.592 33.5279 49.3714 27.001 53.1508C19.3963 48.7524 11.7916 44.3485 4.19234 39.95L4.19775 39.9391ZM27.0119 20.6999C20.1059 16.7033 13.2053 12.7067 6.29934 8.71005L21.3462 0C28.2522 3.99663 35.1528 7.99326 42.0588 11.9899C37.0431 14.895 32.0275 17.7948 27.0119 20.6999ZM51.6459 34.4166C50.9472 33.2057 49.9776 32.2445 48.8618 31.5658L48.981 31.4952C52.8158 29.2742 54.1429 24.311 51.9275 20.461C49.7122 16.6164 44.7616 15.286 40.9213 17.507L27.0064 25.56L2.10158 11.1428L0 12.3537V42.3664L27.0119 58L48.6993 45.4454C52.5342 43.2244 53.8612 38.2612 51.6459 34.4112V34.4166Z" fill="#FFD012"/>
</svg>
